<svg xmlns="http://www.w3.org/2000/svg">
<symbol id='save-icon' viewBox="0 0 39 39">
  <path d="M0 0h3v3H0zM0 3h3v3H0zM0 6h3v3H0zM0 9h3v3H0zM0 12h3v3H0zM0 15h3v3H0zM0 18h3v3H0zM0 21h3v3H0zM0 24h3v3H0zM0 27h3v3H0zM0 30h3v3H0zM0 33h3v3H0zM0 36h3v3H0zM33 0v3h-3V0zM30 0v3h-3V0zM27 0v3h-3V0zM24 0v3h-3V0zM21 0v3h-3V0zM18 0v3h-3V0zM15 0v3h-3V0zM12 0v3H9V0zM9 0v3H6V0zM6 0v3H3V0zM36 3v3h-3V3zM9 6v3H6V6zM9 3v3H6V3zM9 9v3H6V9zM30 6v3h-3V6zM30 3v3h-3V3zM30 9v3h-3V9zM24 6v3h-3V6zM24 3v3h-3V3zM24 9v3h-3V9zM30 12v3h-3v-3zM27 12v3h-3v-3zM24 12v3h-3v-3zM21 12v3h-3v-3zM18 12v3h-3v-3zM15 12v3h-3v-3zM12 12v3H9v-3zM9 12v3H6v-3zM33 21v3h-3v-3zM30 21v3h-3v-3zM27 21v3h-3v-3zM24 21v3h-3v-3zM21 21v3h-3v-3zM18 21v3h-3v-3zM15 21v3h-3v-3zM12 21v3H9v-3zM9 21v3H6v-3zM33 24v3h-3v-3zM9 24v3H6v-3zM33 27v3h-3v-3zM9 27v3H6v-3zM33 30v3h-3v-3zM9 30v3H6v-3zM9 33v3H6v-3zM33 33v3h-3v-3zM36 36v3h-3v-3zM33 36v3h-3v-3zM30 36v3h-3v-3zM27 36v3h-3v-3zM24 36v3h-3v-3zM21 36v3h-3v-3zM18 36v3h-3v-3zM15 36v3h-3v-3zM12 36v3H9v-3zM9 36v3H6v-3zM6 36v3H3v-3zM39 39h-3v-3h3zM39 36h-3v-3h3zM39 33h-3v-3h3zM39 30h-3v-3h3zM39 27h-3v-3h3zM39 24h-3v-3h3zM39 21h-3v-3h3zM39 18h-3v-3h3zM39 15h-3v-3h3zM39 12h-3V9h3zM39 9h-3V6h3z"/>
</symbol>

<symbol id="heart-default">
<path d="M6 0H3v3h3V0ZM9 0H6v3h3V0ZM3 3H0v3h3V3ZM3 6H0v3h3V6ZM3 9H0v3h3V9ZM12 0H9v3h3V0ZM6 12H3v3h3v-3ZM9 15H6v3h3v-3ZM12 18H9v3h3v-3ZM21 0h3v3h-3V0ZM18 0h3v3h-3V0ZM24 3h3v3h-3V3ZM24 6h3v3h-3V6ZM24 9h3v3h-3V9ZM15 0h3v3h-3V0ZM21 12h3v3h-3v-3ZM18 15h3v3h-3v-3ZM15 18h3v3h-3v-3ZM15 3h-3v3h3V3ZM15 21h-3v3h3v-3Z"/>
</symbol>

<symbol id="heart-inpath">
<path fill="#000" d="M12 6H9v3h3V6Zm3 0h-3v3h3V6ZM9 9H6v3h3V9Zm0 3H6v3h3v-3Zm0 3H6v3h3v-3Zm9-9h-3v3h3V6Zm-6 12H9v3h3v-3Zm3 3h-3v3h3v-3Zm3 3h-3v3h3v-3Zm9-18h3v3h-3V6Zm-3 0h3v3h-3V6Zm6 3h3v3h-3V9Zm0 3h3v3h-3v-3Zm0 3h3v3h-3v-3Zm-9-9h3v3h-3V6Zm6 12h3v3h-3v-3Zm-3 3h3v3h-3v-3Zm-3 3h3v3h-3v-3Zm0 3h-3v3h3v-3Zm0-18h-3v3h3V9Z"/>

<path fill="red" d="M12 9H9v3h3V9Zm3 3h-3v3h3v-3Zm3-3h-3v3h3V9Zm-6 6H9v3h3v-3Zm3 0h-3v3h3v-3Zm0 3h-3v3h3v-3Zm3-6h-3v3h3v-3Zm0 9h-3v3h3v-3Zm0-3h-3v3h3v-3Zm9-9h3v3h-3V9Zm-3 0h3v3h-3V9Zm3 3h3v3h-3v-3Zm-3 0h3v3h-3v-3Zm-3-3h3v3h-3V9Zm6 6h3v3h-3v-3Zm-3 0h3v3h-3v-3Zm0 3h3v3h-3v-3Zm-3-6h3v3h-3v-3Zm0 9h3v3h-3v-3Zm0-3h3v3h-3v-3Zm0 3h-3v3h3v-3Zm0 3h-3v3h3v-3Z"/>

<path fill="#fff" d="M18 15h-3v3h3v-3Zm3 0h3v3h-3v-3Zm0 0h-3v3h3v-3Zm0-3h-3v3h3v-3Zm0 6h-3v3h3v-3Z"/>

<path fill="red" d="M36 13h3v3h-3v-3Zm-9 14h3v3h-3v-3Zm-9 6h3v3h-3v-3Zm-9-6h3v3H9v-3ZM24 0h3v3h-3V0Zm9 3h3v3h-3V3ZM3 3h3v3H3V3Zm9-3h3v3h-3V0ZM0 13h3v3H0v-3Z"/>
</symbol>

</svg>